<svg version="1.1" viewBox="4 4 59 59" xmlns="http://www.w3.org/2000/svg" xmlns:xlink="http://www.w3.org/1999/xlink">
    <path class="fill" fill-rule="evenodd" clip-rule="evenodd" fill="#E19126" d="M44.164,46.268h5.104c0-14.633-11.904-26.545-26.535-26.545  v5.09C34.547,24.812,44.164,34.438,44.164,46.268z M35.143,46.271L35.143,46.271h5.11c0-9.665-7.862-17.526-17.521-17.526v5.088  c3.313,0,6.429,1.295,8.774,3.642C33.85,39.816,35.143,42.945,35.143,46.271z M26.266,46.277c1.957,0,3.538-1.572,3.538-3.521  c0-1.938-1.581-3.527-3.538-3.527c-1.949,0-3.533,1.59-3.533,3.527C22.732,44.705,24.316,46.277,26.266,46.277z M3,4h60v60H3V4z" />
</svg>