<svg version="1.1" viewBox="4 4 59 59" xmlns="http://www.w3.org/2000/svg" xmlns:xlink="http://www.w3.org/1999/xlink">
    <path class="fill" fill-rule="evenodd" clip-rule="evenodd" fill="#EC4A89" d="M44.469,24.535c-0.027,0.039-2.375,3.43-8.152,5.79  c0.34,0.698,0.669,1.408,0.973,2.122c0.108,0.256,0.214,0.507,0.316,0.758c5.027-0.633,9.979,0.432,10.191,0.475  C47.763,30.211,46.521,27.028,44.469,24.535z M38.498,35.514c1.919,5.274,2.699,9.57,2.848,10.452  c3.285-2.217,5.619-5.738,6.27-9.816C47.314,36.053,43.221,34.757,38.498,35.514z M38.881,47.303  c-0.216-1.278-1.066-5.76-3.125-11.111c-0.033,0.011-0.065,0.021-0.098,0.032c-8.633,3.01-11.453,9.075-11.483,9.142  c2.484,1.932,5.6,3.098,8.994,3.098C35.195,48.463,37.125,48.05,38.881,47.303z M35.191,28.144c5.521-2.068,7.605-5.241,7.641-5.296  c-2.576-2.271-5.959-3.648-9.663-3.648c-1.189,0-2.343,0.144-3.448,0.41C29.94,19.903,32.688,23.549,35.191,28.144z M34.758,33.768  c-0.367-0.833-0.768-1.666-1.187-2.487c-7.535,2.256-14.764,2.094-15.023,2.083c-0.004,0.158-0.012,0.31-0.012,0.468  c0,3.759,1.418,7.186,3.749,9.777c-0.005-0.008,4-7.112,11.896-9.666C34.371,33.879,34.566,33.822,34.758,33.768z M49.954,30.381  c0.231,1.127,0.35,2.288,0.35,3.45c0,1.16-0.118,2.319-0.35,3.448c-0.226,1.103-0.561,2.186-0.999,3.221  c-0.428,1.017-0.959,1.996-1.58,2.91c-0.611,0.907-1.316,1.759-2.09,2.535c-0.776,0.773-1.629,1.478-2.535,2.092  c-0.916,0.618-1.896,1.149-2.911,1.58c-1.035,0.437-2.118,0.771-3.219,0.997c-1.13,0.232-2.291,0.352-3.451,0.352  c-1.162,0-2.323-0.119-3.451-0.352c-1.102-0.226-2.186-0.561-3.22-0.997c-1.016-0.431-1.996-0.962-2.912-1.58  c-0.906-0.614-1.759-1.318-2.533-2.092c-0.775-0.776-1.479-1.628-2.092-2.535c-0.618-0.914-1.15-1.894-1.58-2.91  c-0.438-1.035-0.774-2.118-1.001-3.221c-0.229-1.129-0.346-2.288-0.346-3.448c0-1.162,0.117-2.323,0.347-3.45  c0.227-1.103,0.562-2.187,1-3.22c0.43-1.019,0.962-1.998,1.58-2.912c0.612-0.909,1.317-1.759,2.092-2.536  c0.774-0.772,1.627-1.475,2.533-2.089c0.916-0.62,1.896-1.152,2.912-1.583c1.034-0.438,2.118-0.773,3.22-0.998  c1.128-0.23,2.289-0.348,3.451-0.348c1.16,0,2.321,0.117,3.451,0.348c1.101,0.225,2.184,0.561,3.219,0.998  c1.016,0.431,1.995,0.963,2.911,1.583c0.906,0.614,1.76,1.316,2.535,2.089c0.773,0.777,1.479,1.627,2.09,2.536  c0.621,0.914,1.152,1.894,1.58,2.912C49.394,28.194,49.729,29.278,49.954,30.381z M32.359,29.027  c-2.533-4.5-5.239-8.172-5.434-8.433c-4.081,1.927-7.126,5.688-8.076,10.22C19.235,30.817,25.333,30.894,32.359,29.027z M3,4h60v60  H3V4z" />
</svg>